<svg xmlns="http://www.w3.org/2000/svg" xmlns:xlink="http://www.w3.org/1999/xlink" width="32" height="32" viewBox="0 0 32 32">
  <defs>
    <clipPath id="clip-path">
      <rect id="Rectangle_1" data-name="Rectangle 1" width="32" height="32" rx="16" transform="translate(316 30)" fill="none" stroke="#707070" stroke-width="1"/>
    </clipPath>
    <linearGradient id="linear-gradient" x1="-0.17" y1="0.826" x2="0.751" y2="0.435" gradientUnits="objectBoundingBox">
      <stop offset="0" stop-color="#00c6ff"/>
      <stop offset="1" stop-color="#007aff"/>
    </linearGradient>
    <linearGradient id="linear-gradient-2" x1="0.5" y1="0.273" x2="0.5" y2="-0.942" gradientUnits="objectBoundingBox">
      <stop offset="0.02" stop-color="#fff"/>
      <stop offset="0.99" stop-color="#ccf4ff"/>
    </linearGradient>
    <linearGradient id="linear-gradient-3" x1="0.563" y1="0.655" x2="0.316" y2="-0.342" gradientUnits="objectBoundingBox">
      <stop offset="0" stop-color="#fff"/>
      <stop offset="0.99" stop-color="#ccf4ff"/>
    </linearGradient>
    <linearGradient id="linear-gradient-4" x1="0.602" y1="0.44" x2="0.353" y2="-0.565" xlink:href="#linear-gradient-3"/>
    <linearGradient id="linear-gradient-5" x1="0.642" y1="0.268" x2="0.389" y2="-0.744" xlink:href="#linear-gradient-3"/>
  </defs>
  <g id="Mask_Group_1" data-name="Mask Group 1" transform="translate(-316 -30)" clip-path="url(#clip-path)">
    <g id="Layer_2" data-name="Layer 2" transform="translate(316 30)">
      <g id="Layer_1-2" data-name="Layer 1-2">
        <path id="Path_141577" data-name="Path 141577" d="M24,0H8A8,8,0,0,0,0,8V24a8,8,0,0,0,8,8H24a8,8,0,0,0,8-8V8A8,8,0,0,0,24,0Z" fill="url(#linear-gradient)"/>
        <path id="Path_141578" data-name="Path 141578" d="M31.01,22.19h0a1.14,1.14,0,0,1,1.14,1.14v7.333a1.14,1.14,0,0,1-1.14,1.14h0a1.14,1.14,0,0,1-1.14-1.14V23.33A1.14,1.14,0,0,1,31.01,22.19Z" transform="translate(-9.956 -7.396)" fill="url(#linear-gradient-2)"/>
        <path id="Path_141579" data-name="Path 141579" d="M25.273,21.894l7.167-4.147a.5.5,0,0,1,.681.188.5.5,0,0,1,.065.245v1.44a.667.667,0,0,1-.327.58l-7.173,4.2a.5.5,0,0,1-.747-.427V22.468A.666.666,0,0,1,25.273,21.894Z" transform="translate(-8.313 -5.894)" fill="#fff"/>
        <path id="Path_141580" data-name="Path 141580" d="M26.147,11.992,20.213,8.6a1.186,1.186,0,0,0-1.2,0l-7.64,4.447a1.188,1.188,0,0,0-.593,1.027v9.86a1.107,1.107,0,0,0,1.107,1.107,1.087,1.087,0,0,0,1.1-.973v-8.88a1.22,1.22,0,0,1,.607-.887l5.233-3.107h.053a.3.3,0,0,1,.133,0,.271.271,0,0,1,.127,0s.6.333.6.34a.154.154,0,0,1,.08.133.16.16,0,0,1-.047.113l-5.2,3.14a1.2,1.2,0,0,0-.58,1.007v9.867a1.087,1.087,0,0,0,2.167,0V17.3h0v-.1a1.173,1.173,0,0,1,.58-1.007L22.033,13a.331.331,0,0,1,.18-.053h.12l.62.333a.153.153,0,0,1,.067.133.16.16,0,0,1-.08.147l-5.147,3.12a1.333,1.333,0,0,0-.667,1.133V27.7a1.093,1.093,0,0,0,2.187,0V18.972a1.173,1.173,0,0,1,.593-1.027l6.227-3.62C27.407,13.659,27.427,12.692,26.147,11.992Z" transform="translate(-3.593 -2.812)" fill="#fff"/>
        <path id="Path_141581" data-name="Path 141581" d="M11.787,18.463l.88.533a.666.666,0,0,1,.327.573v7.807a1.113,1.113,0,0,1-1.507.9A1.127,1.127,0,0,1,10.78,27.2V19.037a.667.667,0,0,1,1.007-.573Z" transform="translate(-3.593 -6.123)" fill="url(#linear-gradient-3)"/>
        <path id="Path_141582" data-name="Path 141582" d="M16.563,21.351l.833.5a.666.666,0,0,1,.32.567v7.6a1.113,1.113,0,0,1-.9,1.113,1.086,1.086,0,0,1-1.251-.891,1.032,1.032,0,0,1-.015-.175V21.918a.667.667,0,0,1,1.013-.567Z" transform="translate(-5.183 -7.084)" fill="url(#linear-gradient-4)"/>
        <path id="Path_141583" data-name="Path 141583" d="M22.523,32.8a1.1,1.1,0,0,1-2.193,0V24.076a.333.333,0,0,1,.507-.28l1.333.813a.666.666,0,0,1,.32.567Z" transform="translate(-6.777 -7.915)" fill="url(#linear-gradient-5)"/>
      </g>
    </g>
  </g>
</svg>
