<svg xmlns="http://www.w3.org/2000/svg" xmlns:xlink="http://www.w3.org/1999/xlink" width="382" height="248" viewBox="0 0 382 248">
  <defs>
    <clipPath id="clip-path">
      <rect id="Rectangle_18416" data-name="Rectangle 18416" width="382" height="248" transform="translate(-2195 4617)" fill="#fff"/>
    </clipPath>
    <filter id="Union_53" x="13.59" y="-14.997" width="383" height="286.33" filterUnits="userSpaceOnUse">
      <feOffset dy="3" input="SourceAlpha"/>
      <feGaussianBlur stdDeviation="10.5" result="blur"/>
      <feFlood flood-opacity="0.161"/>
      <feComposite operator="in" in2="blur"/>
      <feComposite in="SourceGraphic"/>
    </filter>
    <filter id="Ellipse_1853" x="-2" y="31" width="73" height="72" filterUnits="userSpaceOnUse">
      <feOffset dy="3" input="SourceAlpha"/>
      <feGaussianBlur stdDeviation="3" result="blur-2"/>
      <feFlood flood-opacity="0.161"/>
      <feComposite operator="in" in2="blur-2"/>
      <feComposite in="SourceGraphic"/>
    </filter>
  </defs>
  <g id="Mask_Group_15943" data-name="Mask Group 15943" transform="translate(2195 -4617)" clip-path="url(#clip-path)">
    <g transform="matrix(1, 0, 0, 1, -2195, 4617)" filter="url(#Union_53)">
      <path id="Union_53-2" data-name="Union 53" d="M27.9,179.928A30,30,0,0,1,0,150V10A30,30,0,0,1,30-20H290a30,30,0,0,1,30,30V150a30,30,0,0,1-30,30H53.516l5.38,23.33Z" transform="translate(45.09 33.5)" fill="#fff"/>
    </g>
    <g id="Group_13419" data-name="Group 13419" transform="translate(-2187.801 4654.31)">
      <g transform="matrix(1, 0, 0, 1, -7.2, -37.31)" filter="url(#Ellipse_1853)">
        <ellipse id="Ellipse_1853-2" data-name="Ellipse 1853" cx="27.5" cy="27" rx="27.5" ry="27" transform="translate(7 37)" fill="#fff"/>
      </g>
      <g id="img_ngoac_kep" transform="translate(13.782 16.18)">
        <path id="Path_569" data-name="Path 569" d="M14.235,2.181A27.368,27.368,0,0,0,8.5,5.969,5.453,5.453,0,0,0,6.543,10.1c0,1.952,1.263,3.444,3.674,4.477.574.23.918.459.918.574,0,.344-.574,1.033-1.722,2.3C8.265,18.6,7,20.09,5.51,21.926,1.837,19.745,0,17.1,0,14.12a11.333,11.333,0,0,1,3.9-8.5A23.481,23.481,0,0,1,13.891,0Zm14.694-.115a23.361,23.361,0,0,0-5.74,3.9,5.511,5.511,0,0,0-1.952,4.248c0,1.952,1.263,3.444,3.674,4.362.574.23.918.459.918.689,0,.344-.459.918-1.492,1.952Q22.96,18.6,20.2,22.041c-3.674-2.066-5.51-4.707-5.51-7.691a11.811,11.811,0,0,1,3.788-8.5A24.894,24.894,0,0,1,28.47.115Z" fill="#0877bb"/>
      </g>
    </g>
  </g>
</svg>
