<svg id="Group_41719" data-name="Group 41719" xmlns="http://www.w3.org/2000/svg" xmlns:xlink="http://www.w3.org/1999/xlink" width="39.756" height="39.757" viewBox="0 0 39.756 39.757">
  <defs>
    <linearGradient id="linear-gradient" x1="-0.045" y1="0.307" x2="0.898" y2="0.896" gradientUnits="objectBoundingBox">
      <stop offset="0" stop-color="#30beed"/>
      <stop offset="1" stop-color="#005aa8"/>
    </linearGradient>
    <linearGradient id="linear-gradient-2" x1="0.321" y1="1.024" x2="0.925" y2="0.056" gradientUnits="objectBoundingBox">
      <stop offset="0" stop-color="#e4307d"/>
      <stop offset="1" stop-color="#c72467"/>
    </linearGradient>
    <linearGradient id="linear-gradient-3" x1="0.173" y1="0.977" x2="0.6" y2="0.037" gradientUnits="objectBoundingBox">
      <stop offset="0" stop-color="#ec4528"/>
      <stop offset="0.998" stop-color="#ffa000"/>
    </linearGradient>
    <linearGradient id="linear-gradient-4" x1="0.926" y1="0.265" x2="0.016" y2="0.926" gradientUnits="objectBoundingBox">
      <stop offset="0" stop-color="#ec4528"/>
      <stop offset="1" stop-color="#ffa000"/>
    </linearGradient>
    <linearGradient id="linear-gradient-5" x1="0.86" y1="0.706" x2="-0.062" y2="0.137" xlink:href="#linear-gradient"/>
    <linearGradient id="linear-gradient-6" x1="0.97" y1="0.074" x2="0.081" y2="0.735" xlink:href="#linear-gradient-2"/>
    <linearGradient id="linear-gradient-7" x1="0.03" y1="0.187" x2="0.97" y2="0.6" gradientUnits="objectBoundingBox">
      <stop offset="0" stop-color="#4faa3f"/>
      <stop offset="1" stop-color="#b4ca1d"/>
    </linearGradient>
    <linearGradient id="linear-gradient-8" x1="0.725" y1="0.934" x2="0.106" y2="0.021" xlink:href="#linear-gradient-7"/>
  </defs>
  <path id="Path_82368" data-name="Path 82368" d="M167.828,130.437c-5.511,2.154-8.474,1.839-9.051,1.746-2.373-1.955-4.4-4.1-4.881-5.991-1.13-4.453,3.192-2.6,4.56-1.644C161.31,126.546,164.186,129.413,167.828,130.437Z" transform="translate(-149.736 -123.078)" fill="url(#linear-gradient)"/>
  <path id="Path_82369" data-name="Path 82369" d="M138.418,252.211c2.154,5.511,1.839,8.474,1.746,9.051-1.955,2.372-4.1,4.4-5.991,4.881-4.453,1.13-2.605-3.192-1.644-4.56C134.529,258.731,137.4,255.854,138.418,252.211Z" transform="translate(-131.06 -230.548)" fill="url(#linear-gradient-2)"/>
  <path id="Path_82370" data-name="Path 82370" d="M315.706,159.847c-2.154-5.511-1.839-8.474-1.746-9.051,1.955-2.373,4.1-4.4,5.991-4.881,4.453-1.13,2.6,3.192,1.644,4.56C319.6,153.327,316.73,156.2,315.706,159.847Z" transform="translate(-283.309 -141.753)" fill="url(#linear-gradient-3)"/>
  <path id="Path_82371" data-name="Path 82371" d="M214.392,126.223s-1.452-1.736-6.16,1.993c-4.968,3.935-9.621,6.61-13.466,6.455a4.689,4.689,0,0,1-.532-.035,21.579,21.579,0,0,1-9.629-3.471l-.007-.006c-.121-.1-.242-.2-.363-.295.572.091,3.535.407,9.045-1.747,3.362-1.309,6.393-3,12.161-6.111,0,0,3.587-2.592,5.818-.305A36.9,36.9,0,0,1,214.392,126.223Z" transform="translate(-175.188 -121.759)" fill="url(#linear-gradient-4)"/>
  <path id="Path_82372" data-name="Path 82372" d="M134.205,125.1s-1.736,1.453,1.993,6.16c3.936,4.968,6.61,9.621,6.455,13.466a4.709,4.709,0,0,1-.035.532,21.579,21.579,0,0,1-3.471,9.629l-.006.007c-.1.121-.2.242-.295.362.091-.572.407-3.535-1.747-9.045-1.309-3.362-3-6.393-6.111-12.161,0,0-2.592-3.587-.305-5.818a36.908,36.908,0,0,1,3.522-3.131Z" transform="translate(-129.741 -124.543)" fill="url(#linear-gradient-5)"/>
  <path id="Path_82373" data-name="Path 82373" d="M133.078,291.82s1.452,1.736,6.16-1.993c4.968-3.935,9.621-6.61,13.466-6.455a4.674,4.674,0,0,1,.532.035,21.579,21.579,0,0,1,9.629,3.471s0,.005.007.006c.121.1.242.2.363.295-.572-.091-3.535-.407-9.045,1.747-3.362,1.309-6.393,3-12.161,6.111,0,0-3.588,2.592-5.818.305a36.9,36.9,0,0,1-3.132-3.522Z" transform="translate(-132.527 -256.528)" fill="url(#linear-gradient-6)"/>
  <path id="Path_82374" data-name="Path 82374" d="M260.193,307.724c5.511-2.154,8.474-1.839,9.051-1.746,2.372,1.955,4.4,4.1,4.881,5.991,1.13,4.453-3.192,2.6-4.56,1.644C266.709,311.615,263.836,308.747,260.193,307.724Z" transform="translate(-238.531 -275.326)" fill="url(#linear-gradient-7)"/>
  <path id="Path_82375" data-name="Path 82375" d="M299.8,206.411s1.736-1.453-1.993-6.16c-3.936-4.968-6.61-9.621-6.455-13.466a4.738,4.738,0,0,1,.035-.532,21.581,21.581,0,0,1,3.471-9.629l.006-.007c.1-.121.2-.242.295-.362-.09.572-.407,3.535,1.747,9.045,1.309,3.362,3,6.393,6.111,12.161,0,0,2.592,3.587.305,5.818a36.889,36.889,0,0,1-3.522,3.131Z" transform="translate(-264.511 -167.206)" fill="url(#linear-gradient-8)"/>
</svg>
