<svg id="Group_41801" data-name="Group 41801" xmlns="http://www.w3.org/2000/svg" width="100" height="100" viewBox="0 0 100 100">
  <g id="Group_7546" data-name="Group 7546">
    <circle id="Ellipse_1709" data-name="Ellipse 1709" cx="50" cy="50" r="50" fill="#f1f4ff"/>
  </g>
  <g id="stopwatch" transform="translate(25.194 23.217)">
    <path id="Path_7732" data-name="Path 7732" d="M33.873,34.577l8.1-11.2a.866.866,0,0,0-1.209-1.209L29.563,30.27a3.084,3.084,0,1,0,4.31,4.306Z" transform="translate(-4.923 -2.958)" fill="#4273f0" stroke="#4273f0" stroke-width="0.2"/>
    <path id="Path_7733" data-name="Path 7733" d="M50.468,16.934c-.009-.018-.009-.037-.018-.055s-.027-.027-.038-.043a23.53,23.53,0,0,0-3.086-4.162l1.858-1.858,1.224,1.224L54.08,8.366,50.408,4.694,46.736,8.366,47.961,9.59,46.1,11.449A23.5,23.5,0,0,0,41.94,8.362c-.016-.011-.026-.028-.043-.038s-.037-.01-.055-.019A23.207,23.207,0,0,0,32.95,5.359V4.328h1.3a2.164,2.164,0,1,0,0-4.328h-7.79a2.164,2.164,0,0,0,0,4.328h1.3v1a23.807,23.807,0,0,0-2.791.463.865.865,0,0,0,.387,1.687,22,22,0,0,1,2.475-.42l.858-.065c.29-.022.55-.037.8-.049h0V8.656a.866.866,0,1,0,1.731,0V6.95a21.47,21.47,0,0,1,9.05,2.462l-.853,1.478a.866.866,0,1,0,1.5.866l.851-1.475a21.807,21.807,0,0,1,6.727,6.727l-1.474.851a.866.866,0,0,0,.868,1.5l1.477-.853A21.482,21.482,0,0,1,51.828,27.7H50.118a.866.866,0,1,0,0,1.731h1.709a21.482,21.482,0,0,1-2.466,9.191l-1.477-.853a.866.866,0,0,0-.866,1.5l1.474.851a21.806,21.806,0,0,1-6.727,6.727l-.851-1.474a.866.866,0,1,0-1.5.866l.853,1.478a21.47,21.47,0,0,1-9.05,2.463v-1.7a.866.866,0,0,0-1.731,0v1.71a21.842,21.842,0,0,1-4.134-.534.865.865,0,1,0-.387,1.687,23.388,23.388,0,0,0,5.244.6c.042,0,.083,0,.126,0,.006,0,.01,0,.016,0s.013,0,.02,0a23.219,23.219,0,0,0,11.442-3.093.735.735,0,0,0,.081-.034c.017-.01.027-.027.043-.038A23.54,23.54,0,0,0,50.4,40.316a.814.814,0,0,0,.052-.068c.01-.018.01-.037.018-.055a23.28,23.28,0,0,0,0-23.259Z" transform="translate(-4.385)" fill="#4273f0" stroke="#4273f0" stroke-width="0.2"/>
    <path id="Path_7734" data-name="Path 7734" d="M21.352,13H17.024a1.731,1.731,0,0,0,0,3.462h4.328a1.731,1.731,0,1,0,0-3.462Z" transform="translate(26.825 1.252)" fill="#4273f0" stroke="#4273f0" stroke-width="0.2"/>
    <path id="Path_7735" data-name="Path 7735" d="M20.68,20H12.024a1.731,1.731,0,0,0,0,3.462H20.68a1.731,1.731,0,1,0,0-3.462Z" transform="translate(-2.503 -2.689)" fill="#4273f0" stroke="#4273f0" stroke-width="0.2"/>
    <path id="Path_7736" data-name="Path 7736" d="M20.007,27H7.024a1.731,1.731,0,0,0,0,3.462H20.007a1.731,1.731,0,0,0,0-3.462Z" transform="translate(-1.831 -3.63)" fill="#4273f0" stroke="#4273f0" stroke-width="0.2"/>
    <path id="Path_7737" data-name="Path 7737" d="M19.47,34H3.024a1.731,1.731,0,1,0,0,3.462H19.47a1.731,1.731,0,1,0,0-3.462Z" transform="translate(-1.293 -4.571)" fill="#4273f0" stroke="#4273f0" stroke-width="0.2"/>
    <path id="Path_7738" data-name="Path 7738" d="M20.276,41H9.024a1.731,1.731,0,1,0,0,3.462H20.276a1.731,1.731,0,1,0,0-3.462Z" transform="translate(-2.1 -5.512)" fill="#4273f0" stroke="#4273f0" stroke-width="0.2"/>
    <path id="Path_7739" data-name="Path 7739" d="M21.083,48H15.024a1.731,1.731,0,0,0,0,3.462h6.059a1.731,1.731,0,0,0,0-3.462Z" transform="translate(-2.906 -6.453)" fill="#4273f0" stroke="#4273f0" stroke-width="0.2"/>
  </g>
</svg>
