<svg id="Group_41773" data-name="Group 41773" xmlns="http://www.w3.org/2000/svg" width="100" height="100" viewBox="0 0 100 100">
  <g id="Group_7569" data-name="Group 7569">
    <g id="Group_7545" data-name="Group 7545">
      <circle id="Ellipse_1709" data-name="Ellipse 1709" cx="50" cy="50" r="50" fill="#feebdc"/>
    </g>
    <g id="Group_7710" data-name="Group 7710" transform="translate(24.225 29.223)">
      <path id="Path_9133" data-name="Path 9133" d="M1470.4,1079.146c.765.04,1.53.112,2.295.115,12.466.051,24.931.12,37.4.1,1.507,0,1.842.444,1.858,1.883.016,1.482-.526,1.73-1.842,1.723q-24.106-.116-48.212-.144a2.208,2.208,0,0,1-1.432-2.367c.028-12.586.044-25.172-.017-37.757-.007-1.509.687-1.553,1.82-1.564,1.168-.013,1.8.1,1.795,1.586-.063,11.463,0,22.926-.073,34.389-.011,1.709.448,2.345,2.169,2.161C1467.555,1079.121,1468.98,1079.18,1470.4,1079.146Z" transform="translate(-1460.441 -1041.135)" fill="#fc6f00"/>
      <path id="Path_9134" data-name="Path 9134" d="M1523.12,1042.846c.419,2.016.833,4.032,1.261,6.046.109.512.395,1.047-.109,1.481-.578.5-.975-.09-1.39-.331-2.014-1.173-2-1.181-3.244.76q-5.141,8.044-10.292,16.083c-1.236,1.925-2.26,2.146-4.251.941-2.067-1.251-4.173-2.447-6.162-3.812a1.755,1.755,0,0,0-2.577.22c-5.217,4.6-10.488,9.138-15.74,13.7-2.907-3.177-2.9-3.167.281-5.927,4.724-4.1,9.464-8.19,14.134-12.355,1.465-1.307,2.79-1.493,4.431-.381,1.807,1.223,3.743,2.255,5.555,3.47.988.663,1.522.643,2.2-.449q4.492-7.215,9.164-14.318c.794-1.2.627-1.847-.628-2.381a4.909,4.909,0,0,1-.89-.578c-.867-.623-.5-1.188.242-1.382,2.224-.577,4.481-1.033,6.727-1.526C1522.47,1041.967,1522.8,1042.418,1523.12,1042.846Z" transform="translate(-1472.08 -1041.746)" fill="#fc6f00"/>
    </g>
  </g>
</svg>
