<svg xmlns="http://www.w3.org/2000/svg" xmlns:xlink="http://www.w3.org/1999/xlink" width="40.001" height="39.996" viewBox="0 0 40.001 39.996">
  <defs>
    <clipPath id="clip-path">
      <path id="Path_82361" data-name="Path 82361" d="M866.018,1857.23h-1.432c-.4,0-.806.007-1.207.018a17.441,17.441,0,0,0-2.628.231,8.907,8.907,0,0,0-2.5.821,8.4,8.4,0,0,0-3.674,3.674,8.837,8.837,0,0,0-.822,2.5,17.507,17.507,0,0,0-.231,2.627q-.017.6-.018,1.206v17.842q0,.6.018,1.207a17.542,17.542,0,0,0,.231,2.627,8.865,8.865,0,0,0,.822,2.5,8.419,8.419,0,0,0,3.674,3.671,8.848,8.848,0,0,0,2.5.823,17.441,17.441,0,0,0,2.628.231c.4.01.8.016,1.207.018h17.839c.4,0,.8-.008,1.209-.018a17.429,17.429,0,0,0,2.627-.231,8.861,8.861,0,0,0,2.5-.823,8.423,8.423,0,0,0,3.673-3.671,8.881,8.881,0,0,0,.823-2.5,17.446,17.446,0,0,0,.231-2.627c.011-.4.015-.8.019-1.207v-17.842c0-.4-.008-.8-.019-1.206a17.411,17.411,0,0,0-.231-2.627,8.86,8.86,0,0,0-.823-2.5,8.41,8.41,0,0,0-3.673-3.674,8.915,8.915,0,0,0-2.5-.821,17.444,17.444,0,0,0-2.627-.231c-.4-.011-.8-.016-1.209-.018H866.018Z" transform="translate(-853.506 -1857.235)" fill="none"/>
    </clipPath>
    <linearGradient id="linear-gradient" x1="-14.225" y1="80.077" x2="-14.209" y2="80.077" gradientUnits="objectBoundingBox">
      <stop offset="0" stop-color="#1d79f0"/>
      <stop offset="1" stop-color="#19a0fa"/>
    </linearGradient>
  </defs>
  <g id="Group_41716" data-name="Group 41716" transform="translate(-8073 -2187.995)">
    <g id="Group_41712" data-name="Group 41712" transform="translate(8073 2188)">
      <g id="Group_41711" data-name="Group 41711" clip-path="url(#clip-path)">
        <rect id="Rectangle_18401" data-name="Rectangle 18401" width="40" height="39.999" fill="url(#linear-gradient)"/>
      </g>
    </g>
    <path id="Path_82362" data-name="Path 82362" d="M881.128,1876.41a3.96,3.96,0,0,0-3.961,3.961h0a3.961,3.961,0,1,0,3.961-3.962" transform="translate(7211.607 324.373)" fill="#fff"/>
    <path id="Path_82363" data-name="Path 82363" d="M880.893,1890.06h-2.659a6.826,6.826,0,0,0-5.963,3.706,9.252,9.252,0,0,0,14.479-.2,6.826,6.826,0,0,0-5.857-3.51" transform="translate(7213.239 319.823)" fill="#fff"/>
    <path id="Path_82364" data-name="Path 82364" d="M891.87,1890.7l-3.984-3.441a13.26,13.26,0,1,0-3.405,3.921c.327.283.733.627.733.627l3.254,2.808a2.487,2.487,0,0,0,1.631.61,1.568,1.568,0,0,0,.179-.007,2.48,2.48,0,0,0,1.705-.851l.133-.153a2.491,2.491,0,0,0-.247-3.514m-15.49,1.046a11.059,11.059,0,1,1,11.06-11.06,11.059,11.059,0,0,1-11.06,11.06Z" transform="translate(7216.294 327.365)" fill="#fff"/>
  </g>
</svg>
