<svg xmlns="http://www.w3.org/2000/svg" width="63.697" height="63.697" viewBox="0 0 63.697 63.697">
  <g id="Group_65229" data-name="Group 65229" transform="translate(-1563.201 -1007.3)">
    <g id="Path_116401" data-name="Path 116401" transform="translate(1564.151 1008.25)" fill="rgba(33,33,33,0.62)" opacity="0.5">
      <path d="M 30.8984317779541 61.8968620300293 C 26.71371269226074 61.8968620300293 22.65412139892578 61.0772705078125 18.83243179321289 59.46086120605469 C 15.14114189147949 57.89959335327148 11.82604217529297 55.66446304321289 8.979221343994141 52.81757354736328 C 6.132401943206787 49.97078323364258 3.897291660308838 46.65571212768555 2.335981845855713 42.96445083618164 C 0.7195817828178406 39.142822265625 -0.09999822080135345 35.08323287963867 -0.09999822080135345 30.8984317779541 C -0.09999822080135345 26.71363258361816 0.7195817828178406 22.6540412902832 2.335981845855713 18.83242225646973 C 3.897271871566772 15.14120197296143 6.132381916046143 11.82611179351807 8.979231834411621 8.979231834411621 C 11.82611179351807 6.132381916046143 15.14120197296143 3.897271871566772 18.83241271972656 2.335981845855713 C 22.6540412902832 0.7195817828178406 26.71363258361816 -0.09999822080135345 30.8984317779541 -0.09999822080135345 C 35.08323287963867 -0.09999822080135345 39.142822265625 0.7195817828178406 42.96444320678711 2.335981845855713 C 46.65571212768555 3.897291660308838 49.97078323364258 6.132401943206787 52.81758117675781 8.979231834411621 C 55.66446304321289 11.82604217529297 57.89959335327148 15.14114189147949 59.46085357666016 18.83242225646973 C 61.0772705078125 22.65412139892578 61.8968620300293 26.71371269226074 61.8968620300293 30.8984317779541 C 61.8968620300293 35.08315277099609 61.0772705078125 39.14274215698242 59.46086120605469 42.96443176269531 C 57.89957046508789 46.6557731628418 55.6644401550293 49.97085189819336 52.81757354736328 52.81759262084961 C 49.97085189819336 55.6644401550293 46.6557731628418 57.89957046508789 42.96444320678711 59.46085357666016 C 39.14274215698242 61.0772705078125 35.08315277099609 61.8968620300293 30.8984317779541 61.8968620300293 Z" stroke="none"/>
      <path d="M 30.8984317779541 61.0468635559082 C 34.96891021728516 61.0468635559082 38.91704177856445 60.24983215332031 42.63332366943359 58.67800140380859 C 46.22316360473633 57.15964126586914 49.44749069213867 54.98572158813477 52.2165412902832 52.2165412902832 C 54.98572158813477 49.44749069213867 57.15964126586914 46.22316360473633 58.67800140380859 42.63332366943359 C 60.24983215332031 38.91704177856445 61.0468635559082 34.96891021728516 61.0468635559082 30.8984317779541 C 61.0468635559082 26.82796096801758 60.24983215332031 22.87982177734375 58.67800140380859 19.16354179382324 C 57.15964126586914 15.57370185852051 54.98572158813477 12.34938144683838 52.2165412902832 9.58027172088623 C 49.44749069213867 6.811191558837891 46.22316360473633 4.637241840362549 42.63332366943359 3.118831872940063 C 38.91704177856445 1.54699182510376 34.96891021728516 0.7500017881393433 30.8984317779541 0.7500017881393433 C 26.82796096801758 0.7500017881393433 22.87982177734375 1.54699182510376 19.16354179382324 3.118831872940063 C 15.57370185852051 4.637241840362549 12.34938144683838 6.811191558837891 9.58027172088623 9.58027172088623 C 6.811191558837891 12.34938144683838 4.637241840362549 15.57370185852051 3.118831872940063 19.16354179382324 C 1.54699182510376 22.87982177734375 0.7500017881393433 26.82796096801758 0.7500017881393433 30.8984317779541 C 0.7500017881393433 34.96891021728516 1.54699182510376 38.91704177856445 3.118831872940063 42.63332366943359 C 4.637241840362549 46.22316360473633 6.811191558837891 49.44749069213867 9.58027172088623 52.2165412902832 C 12.34938144683838 54.98572158813477 15.57370185852051 57.15964126586914 19.16354179382324 58.67800140380859 C 22.87982177734375 60.24983215332031 26.82796096801758 61.0468635559082 30.8984317779541 61.0468635559082 M 30.8984317779541 62.74686050415039 C 26.59933090209961 62.74686050415039 22.42834091186523 61.90468215942383 18.50131225585938 60.24371337890625 C 14.70870208740234 58.63959121704102 11.30278205871582 56.34329223632813 8.378171920776367 53.41861343383789 C 5.453581809997559 50.49404144287109 3.157291889190674 47.08815002441406 1.553131818771362 43.29557037353516 C -0.1078282222151756 39.36859130859375 -0.9499981999397278 35.19760131835938 -0.9499981999397278 30.8984317779541 C -0.9499981999397278 26.59926223754883 -0.1078282222151756 22.42827224731445 1.55312180519104 18.50131225585938 C 3.157271862030029 14.70876216888428 5.453551769256592 11.3028621673584 8.378181457519531 8.378191947937012 C 11.3028621673584 5.453551769256592 14.70876216888428 3.157271862030029 18.50129127502441 1.553131818771362 C 22.42827224731445 -0.1078282222151756 26.59926223754883 -0.9499981999397278 30.8984317779541 -0.9499981999397278 C 35.19760131835938 -0.9499981999397278 39.36859130859375 -0.1078282222151756 43.29555130004883 1.55312180519104 C 47.08815002441406 3.157291889190674 50.49404144287109 5.453581809997559 53.41863250732422 8.378191947937012 C 56.34329223632813 11.30278205871582 58.63959121704102 14.70870208740234 60.24371337890625 18.50131225585938 C 61.90468215942383 22.42834091186523 62.74686050415039 26.59933090209961 62.74686050415039 30.8984317779541 C 62.74686050415039 35.19753265380859 61.90468215942383 39.36852264404297 60.24371337890625 43.29555130004883 C 58.63956069946289 47.08822250366211 56.34326171875 50.49412155151367 53.4185905456543 53.41865158081055 C 50.49412155151367 56.34326171875 47.08822250366211 58.63956069946289 43.29555130004883 60.24371337890625 C 39.36852264404297 61.90468215942383 35.19753265380859 62.74686050415039 30.8984317779541 62.74686050415039 Z" stroke="none" fill="#fff"/>
    </g>
    <path id="Path_28000" data-name="Path 28000" d="M3.07,32.073a2.494,2.494,0,0,1-1.819-.8A2.8,2.8,0,0,1,.5,29.351V3.222A2.8,2.8,0,0,1,1.251,1.3,2.493,2.493,0,0,1,3.07.5,2.347,2.347,0,0,1,4.332.877L25.68,13.941a2.8,2.8,0,0,1,1.305,2.345,2.657,2.657,0,0,1-1.3,2.345L4.374,31.7a2.588,2.588,0,0,1-1.3.377Z" transform="translate(1584.211 1022.5)" fill="#fff"/>
  </g>
</svg>
