<svg xmlns="http://www.w3.org/2000/svg" xmlns:xlink="http://www.w3.org/1999/xlink" width="40" height="40" viewBox="0 0 40 40">
  <defs>
    <clipPath id="clip-path">
      <circle id="Ellipse_2488" data-name="Ellipse 2488" cx="20" cy="20" r="20" transform="translate(-3483 -1010)" fill="#fff"/>
    </clipPath>
    <linearGradient id="linear-gradient" x1="0.5" x2="0.5" y2="1" gradientUnits="objectBoundingBox">
      <stop offset="0" stop-color="#19c6fb"/>
      <stop offset="1" stop-color="#1d71f1"/>
    </linearGradient>
    <filter id="Path_37464" x="7.7" y="5.499" width="24.8" height="30.834" filterUnits="userSpaceOnUse">
      <feOffset dy="1" input="SourceAlpha"/>
      <feGaussianBlur stdDeviation="0.5" result="blur"/>
      <feFlood flood-opacity="0.161"/>
      <feComposite operator="in" in2="blur"/>
      <feComposite in="SourceGraphic"/>
    </filter>
  </defs>
  <g id="Mask_Group_32" data-name="Mask Group 32" transform="translate(3483 1010)" clip-path="url(#clip-path)">
    <g id="Group_48144" data-name="Group 48144">
      <g id="ic_hoso" transform="translate(-3983 -140.001)">
        <path id="Path_37462" data-name="Path 37462" d="M40,12.513c0-.48,0-.955,0-1.433,0-.4-.007-.8-.018-1.207a17.542,17.542,0,0,0-.231-2.627,8.849,8.849,0,0,0-.823-2.5,8.4,8.4,0,0,0-3.673-3.673,8.86,8.86,0,0,0-2.5-.823A17.561,17.561,0,0,0,30.128.021c-.4-.011-.8-.016-1.208-.018-.477,0-.955,0-1.433,0H12.513c-.478,0-.956,0-1.433,0-.4,0-.805.007-1.207.018A17.551,17.551,0,0,0,7.245.252a8.86,8.86,0,0,0-2.5.823A8.4,8.4,0,0,0,1.075,4.748a8.849,8.849,0,0,0-.823,2.5A17.542,17.542,0,0,0,.021,9.872q-.016.6-.018,1.208c0,.477,0,.955,0,1.433V27.487c0,.478,0,.955,0,1.433q0,.6.018,1.207a17.541,17.541,0,0,0,.231,2.628,8.853,8.853,0,0,0,.823,2.5,8.412,8.412,0,0,0,3.673,3.672,8.86,8.86,0,0,0,2.5.823,17.552,17.552,0,0,0,2.628.231c.4.011.8.015,1.207.018.477,0,.955,0,1.433,0H27.487c.478,0,.956,0,1.433,0,.4,0,.8-.007,1.207-.018a17.56,17.56,0,0,0,2.628-.231,8.86,8.86,0,0,0,2.5-.823,8.412,8.412,0,0,0,3.673-3.672,8.853,8.853,0,0,0,.823-2.5,17.543,17.543,0,0,0,.231-2.627c.011-.4.015-.8.018-1.207,0-.478,0-.955,0-1.433Z" transform="translate(500 -870)" fill="url(#linear-gradient)"/>
        <path id="Path_37463" data-name="Path 37463" d="M46.462,28a2.586,2.586,0,0,0-2.586,2.586h0a2.586,2.586,0,0,0,2.585,2.585h0a2.586,2.586,0,0,0,2.584-2.585h0A2.586,2.586,0,0,0,46.462,28Z" transform="translate(473.674 -886.799)" fill="#fff"/>
        <g transform="matrix(1, 0, 0, 1, 500, -870)" filter="url(#Path_37464)">
          <path id="Path_37464-2" data-name="Path 37464" d="M40.413,15H27.387A4.387,4.387,0,0,0,23,19.386V38.447a4.387,4.387,0,0,0,4.387,4.387H36.08a3.6,3.6,0,0,0,2.587-1.095l5.117-5.275A3.6,3.6,0,0,0,44.8,33.956V19.386A4.387,4.387,0,0,0,40.413,15ZM25.4,38.447V19.386A1.987,1.987,0,0,1,27.387,17.4H40.413A1.987,1.987,0,0,1,42.4,19.386V33.8H39.918A4.118,4.118,0,0,0,35.8,37.916v2.518H27.387A1.987,1.987,0,0,1,25.4,38.447Z" transform="translate(-13.8 -9)" fill="#fff"/>
        </g>
        <path id="Path_37465" data-name="Path 37465" d="M42.21,42.558h0a5.683,5.683,0,0,0-5.35,3.766,1.188,1.188,0,0,0,1.117,1.59h8.466a1.188,1.188,0,0,0,1.117-1.59A5.683,5.683,0,0,0,42.21,42.558Z" transform="translate(477.926 -895.534)" fill="#fff"/>
        <rect id="Rectangle_7266" data-name="Rectangle 7266" width="7.7" height="1.6" rx="0.8" transform="translate(513.35 -845.346)" fill="#fff"/>
        <rect id="Rectangle_7267" data-name="Rectangle 7267" width="6.417" height="1.6" rx="0.8" transform="translate(513.392 -842.255)" fill="#fff"/>
        <rect id="Rectangle_7268" data-name="Rectangle 7268" width="40" height="40" transform="translate(500 -869.999)" fill="none"/>
      </g>
    </g>
  </g>
</svg>
