<svg xmlns="http://www.w3.org/2000/svg" xmlns:xlink="http://www.w3.org/1999/xlink" width="1920" height="670" viewBox="0 0 1920 670">
  <defs>
    <linearGradient id="linear-gradient" x1="1.05" x2="0.401" y2="0.761" gradientUnits="objectBoundingBox">
      <stop offset="0" stop-color="#4262ef"/>
      <stop offset="1" stop-color="#4262ef"/>
    </linearGradient>
    <clipPath id="clip-Artboard_10">
      <rect width="1920" height="670"/>
    </clipPath>
  </defs>
  <g id="Artboard_10" data-name="Artboard – 10" clip-path="url(#clip-Artboard_10)">
    <rect width="1920" height="670" fill="#fff"/>
    <g id="Group_53425" data-name="Group 53425" transform="translate(9776 -3199)">
      <g id="Path_135241" data-name="Path 135241" transform="translate(-9776 3198.693)" opacity="0.94" fill="url(#linear-gradient)">
        <path d="M 1920.5 679.1947631835938 L 0.5 679.1947631835938 L 0.5 0.5000311732292175 L 1920.5 0.5000311732292175 L 1920.5 679.1947631835938 Z" stroke="none"/>
        <path d="M 1 1.00006103515625 L 1 678.6947631835938 L 1920 678.6947631835938 L 1920 1.00006103515625 L 1 1.00006103515625 M 0 6.103515625e-05 L 1921 6.103515625e-05 L 1921 679.6947631835938 L 0 679.6947631835938 L 0 6.103515625e-05 Z" stroke="none" fill="#707070"/>
      </g>
    </g>
    <path id="Path_135242" data-name="Path 135242" d="M9882,232.92s218.765,79.845,303.418-73.538,358.331-46.2,462.881-127.951,82.963-195.828,82.963-195.828H9882Z" transform="translate(-9936.105 143.84)" fill="#fff" opacity="0.06"/>
    <path id="Path_135243" data-name="Path 135243" d="M10475.582-220.381s-140.619,13.669-201.259,123.541-256.683,33.094-331.574,91.655-59.429,140.277-59.429,140.277h608.35Z" transform="translate(-8548.496 540.991)" fill="#fff" opacity="0.06"/>
    <g id="Group_53424" data-name="Group 53424" transform="translate(0 -9814.307)">
      <path id="Path_135239" data-name="Path 135239" d="M9882,232.92s218.765,79.845,303.418-73.538,358.331-46.2,462.881-127.951,82.963-195.828,82.963-195.828H9882Z" transform="translate(-9936.105 9958.146)" fill="#fff" opacity="0.06"/>
      <path id="Path_135240" data-name="Path 135240" d="M10475.582-220.381s-140.619,13.669-201.259,123.541-256.683,33.094-331.574,91.655-59.429,140.277-59.429,140.277h608.35Z" transform="translate(-8548.496 10358.602)" fill="#fff" opacity="0.06"/>
    </g>
  </g>
</svg>
