<svg xmlns="http://www.w3.org/2000/svg" xmlns:xlink="http://www.w3.org/1999/xlink" width="40" height="40" viewBox="0 0 40 40">
  <defs>
    <clipPath id="clip-path">
      <rect id="Rectangle_18478" data-name="Rectangle 18478" width="44.7" height="44.7" transform="translate(517.5 1449)" fill="#fff"/>
    </clipPath>
    <clipPath id="clip-path-2">
      <rect id="Rectangle_18396" data-name="Rectangle 18396" width="43.769" height="43.769" transform="translate(0 0)" fill="#fff"/>
    </clipPath>
    <clipPath id="clip-Artboard_1">
      <rect width="40" height="40"/>
    </clipPath>
  </defs>
  <g id="Artboard_1" data-name="Artboard – 1" clip-path="url(#clip-Artboard_1)">
    <g id="Mask_Group_15964" data-name="Mask Group 15964" transform="translate(-519.8 -1451)" clip-path="url(#clip-path)">
      <g id="Mask_Group_15937" data-name="Mask Group 15937" transform="translate(518.897 1448.069)" clip-path="url(#clip-path-2)">
        <g id="Group_41703" data-name="Group 41703" transform="translate(-0.344 2.257)">
          <g id="Group_41702" data-name="Group 41702" transform="translate(0 0)">
            <g id="Group_41701" data-name="Group 41701">
              <path id="Path_82345" data-name="Path 82345" d="M27.688,7.432A8.249,8.249,0,0,0,20.446.92C14.239.249,4.441,0,4.441,0V.006A1.57,1.57,0,0,0,4.279,0H4.247A4.363,4.363,0,0,0,0,4.409,4.248,4.248,0,0,0,4.2,8.771s10.274.294,15.423.772c7.177.666,5.882,6.772,5.882,6.772a11.474,11.474,0,0,0,2.184-8.883Z" transform="translate(43.053 21.421) rotate(135)" fill="#2680eb"/>
              <path id="Path_82346" data-name="Path 82346" d="M26.177,7.156A7.877,7.877,0,0,0,19.332.887C13.464.24,4.2,0,4.2,0V.006A1.37,1.37,0,0,0,4.047,0H4.016A4.165,4.165,0,0,0,0,4.244a4.057,4.057,0,0,0,3.967,4.2s9.713.279,14.582.745c6.785.642,5.56,6.519,5.56,6.519a11.206,11.206,0,0,0,2.066-8.551Z" transform="translate(34.296 14.243) rotate(135)" fill="#1492e6"/>
              <path id="Path_82347" data-name="Path 82347" d="M20.664,5.952s-.77-4.672-5.4-5.215S3.319,0,3.319,0H3.172A3.388,3.388,0,0,0,.006,3.526a3.3,3.3,0,0,0,3.13,3.489s7.666.238,11.508.622a4.481,4.481,0,0,1,4.387,5.418,9.714,9.714,0,0,0,1.632-7.1Z" transform="translate(23.929 9.231) rotate(135)" fill="#70bcee"/>
            </g>
          </g>
        </g>
      </g>
    </g>
  </g>
</svg>
