<svg id="Group_41802" data-name="Group 41802" xmlns="http://www.w3.org/2000/svg" width="100" height="100" viewBox="0 0 100 100">
  <g id="Group_7547" data-name="Group 7547" transform="translate(0 0)">
    <g id="Group_7545" data-name="Group 7545" opacity="0.21">
      <circle id="Ellipse_1709" data-name="Ellipse 1709" cx="50" cy="50" r="50" fill="#90e55a"/>
    </g>
  </g>
  <g id="piggy-bank" transform="translate(25.473 25.194)">
    <g id="Group_41755" data-name="Group 41755" transform="translate(37.458 26.087)">
      <g id="Group_41754" data-name="Group 41754">
        <path id="Path_82386" data-name="Path 82386" d="M385.284,270.613a.732.732,0,0,0-.732.732.93.93,0,0,1-1.859,0,.732.732,0,1,0-1.464,0,2.394,2.394,0,0,0,4.788,0A.732.732,0,0,0,385.284,270.613Z" transform="translate(-381.228 -270.613)" fill="#09bf1f" stroke="#09bf1f" stroke-width="0.5"/>
      </g>
    </g>
    <g id="Group_41757" data-name="Group 41757" transform="translate(0 0)">
      <g id="Group_41756" data-name="Group 41756">
        <path id="Path_82387" data-name="Path 82387" d="M48.385,31.321l-2.061-.66a.862.862,0,0,1-.556-.564,13.285,13.285,0,0,0-1.948-3.853,14.139,14.139,0,0,0-1.3-1.535,18.16,18.16,0,0,0,.448-4.147c-.031-1.865-.4-2.959-1.14-3.345-.4-.208-1.6-.839-8.134,2.15a2.376,2.376,0,0,0-.433.258c-.44-.118-.89-.228-1.343-.326l-.166-.034a9.973,9.973,0,0,0,.9-3.708.732.732,0,0,0-1.463-.066,8.518,8.518,0,0,1-5.573,7.616,21.231,21.231,0,0,0-5.893,0A8.525,8.525,0,1,1,30.286,11.273a.732.732,0,0,0,1.308-.659A9.993,9.993,0,1,0,17.363,23.579h0q-.683.177-1.354.4a.732.732,0,0,0,.464,1.389,19.648,19.648,0,0,1,12.383,0,.732.732,0,0,0,.464-1.389q-.67-.224-1.354-.4h0a9.983,9.983,0,0,0,3.039-2.971c.2.039.4.08.6.123q.394.086.784.183c-.008.032-.017.064-.023.1a8.731,8.731,0,0,0,.069,4.454,5.3,5.3,0,0,0,1.942,2.729,6.159,6.159,0,0,0,3.6,1.144,4.831,4.831,0,0,0,2.335-.54,4.458,4.458,0,0,0,1.721-2.444q.316.369.6.757a11.821,11.821,0,0,1,1.734,3.429,2.328,2.328,0,0,0,1.506,1.519l2.061.66a1.3,1.3,0,0,1,.9,1.239v3.417a1.3,1.3,0,0,1-.9,1.239l-3.32,1.063A2.262,2.262,0,0,0,43.353,40.7a14.592,14.592,0,0,1-6.1,5.544,1.147,1.147,0,0,0-.6.809l-1.063,5.63a.329.329,0,0,1-.323.268H31.812a.329.329,0,0,1-.323-.268L30.9,49.573a1.15,1.15,0,0,0-1.308-.925,30.6,30.6,0,0,1-4.561.339,29.187,29.187,0,0,1-3.355-.19,1.16,1.16,0,0,0-1.269.931l-.56,2.957a.329.329,0,0,1-.323.268H16.067a.33.33,0,0,1-.324-.27l-1.024-5.318a1.149,1.149,0,0,0-.591-.8A12.93,12.93,0,0,1,6.988,34.517a14.074,14.074,0,0,1,1.77-7.155,12.774,12.774,0,0,1,4.758-4.646.732.732,0,0,0-.733-1.268,13.935,13.935,0,0,0-7.071,10.41h0l-.211-.02a3.645,3.645,0,0,0-.268-1.461A3,3,0,0,0,3.01,28.436a2.023,2.023,0,0,0-1.905.849,1.928,1.928,0,0,0-.366,2.1c.369.76,1.317,1.3,2.89,1.635q-.065.1-.143.2A3.592,3.592,0,0,1,.749,34.666.769.769,0,0,0,0,35.431v0a.767.767,0,0,0,.735.765q.079,0,.165,0A4.755,4.755,0,0,0,4.63,34.131a4.175,4.175,0,0,0,.535-.863q.207.023.4.041h0c-.025.4-.039.8-.039,1.209a15.088,15.088,0,0,0,2.16,8.08,14.8,14.8,0,0,0,5.626,5.191l1,5.17a1.8,1.8,0,0,0,1.762,1.46h3.457a1.8,1.8,0,0,0,1.762-1.46l.506-2.673a30.854,30.854,0,0,0,3.239.168,32.164,32.164,0,0,0,4.486-.313l.533,2.818a1.8,1.8,0,0,0,1.762,1.46h3.457a1.8,1.8,0,0,0,1.762-1.46l1.035-5.482a15.962,15.962,0,0,0,6.554-6.04.8.8,0,0,1,.445-.367L48.385,40a2.757,2.757,0,0,0,1.921-2.633V33.954A2.756,2.756,0,0,0,48.385,31.321Zm-6.992-8.7c-.282,2.41-1.038,4.471-1.8,4.9a4.48,4.48,0,0,1-4.353-.511c-1.5-1.1-2-3.067-1.442-5.7h0a.883.883,0,0,1,.5-.612c3.665-1.678,5.778-2.227,6.564-2.227a.766.766,0,0,1,.265.035C41.368,18.759,41.677,20.188,41.393,22.62ZM2.056,30.749c-.076-.156.1-.431.216-.581a.584.584,0,0,1,.47-.286.549.549,0,0,1,.074.005,1.6,1.6,0,0,1,1.058,1.036,2.223,2.223,0,0,1,.153.69C3.014,31.4,2.226,31.1,2.056,30.749Z" transform="translate(0 -5.115)" fill="#09bf1f" stroke="#09bf1f" stroke-width="0.5"/>
      </g>
    </g>
    <g id="Group_41759" data-name="Group 41759" transform="translate(19.931 4.701)">
      <g id="Group_41758" data-name="Group 41758">
        <path id="Path_82388" data-name="Path 82388" d="M206.291,57.412v-2.62c.9.065,1.239.478,1.549.478.387,0,.568-.49.568-.736,0-.632-1.239-.9-2.117-.929v-.349c0-.155-.194-.3-.387-.3a.341.341,0,0,0-.374.3v.374a2.4,2.4,0,0,0-2.452,2.4c0,1.652,1.291,2.117,2.452,2.53v3.033c-1.317-.1-1.665-1.007-2.091-1.007-.323,0-.594.426-.594.736,0,.632,1.084,1.5,2.685,1.523h0v.4a.341.341,0,0,0,.374.3c.194,0,.387-.142.387-.3v-.439a2.5,2.5,0,0,0,2.349-2.659C208.64,58.393,207.414,57.825,206.291,57.412Zm-.684-.245c-.684-.258-1.239-.529-1.239-1.265,0-.671.516-.994,1.239-1.084Zm.607,4.4V58.844a1.509,1.509,0,0,1,1.136,1.445A1.228,1.228,0,0,1,206.214,61.568Z" transform="translate(-202.845 -52.959)" fill="#09bf1f" stroke="#09bf1f" stroke-width="0.2"/>
      </g>
    </g>
  </g>
</svg>
