<svg xmlns="http://www.w3.org/2000/svg" xmlns:xlink="http://www.w3.org/1999/xlink" width="40" height="39.996" viewBox="0 0 40 39.996">
  <defs>
    <clipPath id="clip-path">
      <path id="Path_82335" data-name="Path 82335" d="M1178.66,1458.23h-1.432c-.4,0-.807.008-1.207.018a17.6,17.6,0,0,0-2.628.231,8.865,8.865,0,0,0-2.5.823,8.387,8.387,0,0,0-3.673,3.673,8.874,8.874,0,0,0-.823,2.5,17.589,17.589,0,0,0-.23,2.626q-.017.6-.019,1.207v17.838q0,.6.019,1.208a17.609,17.609,0,0,0,.23,2.626,8.843,8.843,0,0,0,.823,2.5,8.4,8.4,0,0,0,3.673,3.673,8.9,8.9,0,0,0,2.5.823,17.587,17.587,0,0,0,2.628.231c.4.01.8.016,1.207.018h17.84q.6,0,1.207-.018a17.6,17.6,0,0,0,2.628-.231,8.922,8.922,0,0,0,2.5-.823,8.412,8.412,0,0,0,3.673-3.673,8.819,8.819,0,0,0,.823-2.5,17.527,17.527,0,0,0,.231-2.626q.015-.6.018-1.208v-17.84c0-.4-.008-.8-.018-1.206a17.553,17.553,0,0,0-.231-2.628,8.835,8.835,0,0,0-.823-2.5,8.4,8.4,0,0,0-3.673-3.673,8.918,8.918,0,0,0-2.5-.821,17.6,17.6,0,0,0-2.627-.231c-.4-.01-.8-.015-1.209-.018H1178.66Z" transform="translate(-1166.152 -1458.234)" fill="none"/>
    </clipPath>
    <linearGradient id="linear-gradient" x1="-13.681" y1="61.834" x2="-13.669" y2="61.834" gradientUnits="objectBoundingBox">
      <stop offset="0" stop-color="#3f4cfd"/>
      <stop offset="0.703" stop-color="#7f73ef"/>
      <stop offset="1" stop-color="#8378f1"/>
    </linearGradient>
    <clipPath id="clip-path-2">
      <rect id="Rectangle_18390" data-name="Rectangle 18390" width="22.968" height="28.823" fill="none"/>
    </clipPath>
  </defs>
  <g id="Group_2" data-name="Group 2" transform="translate(-1166.148 -1458.229)">
    <g id="Group_41683" data-name="Group 41683" transform="translate(1166.152 1458.234)">
      <g id="Group_41682" data-name="Group 41682" clip-path="url(#clip-path)">
        <rect id="Rectangle_18389" data-name="Rectangle 18389" width="56.231" height="56.231" transform="matrix(0.78, -0.626, 0.626, 0.78, -19.525, 15.667)" fill="url(#linear-gradient)"/>
      </g>
    </g>
    <g id="Group_41685" data-name="Group 41685" transform="translate(1173.233 1464.079)">
      <g id="Group_41684" data-name="Group 41684" clip-path="url(#clip-path-2)">
        <path id="Path_82336" data-name="Path 82336" d="M1199.32,1498.05a4.5,4.5,0,1,1-3.184-1.321,4.5,4.5,0,0,1,3.184,1.321" transform="translate(-1181.727 -1476.911)" fill="#fff"/>
        <path id="Path_82337" data-name="Path 82337" d="M1181.83,1489.25a3.153,3.153,0,1,1-4.414.631,3.153,3.153,0,0,1,4.414-.631" transform="translate(-1176.778 -1474.207)" fill="#fff"/>
        <path id="Path_82338" data-name="Path 82338" d="M1201.33,1469.24a7.656,7.656,0,1,1-10.827,0,7.656,7.656,0,0,1,10.827,0" transform="translate(-1180.601 -1467.002)" fill="#fff"/>
      </g>
    </g>
  </g>
</svg>
