<svg xmlns="http://www.w3.org/2000/svg" xmlns:xlink="http://www.w3.org/1999/xlink" width="40" height="40.001" viewBox="0 0 40 40.001">
  <defs>
    <linearGradient id="linear-gradient" x1="-14.225" y1="86.724" x2="-14.209" y2="86.724" gradientUnits="objectBoundingBox">
      <stop offset="0" stop-color="#55f16f"/>
      <stop offset="1" stop-color="#0fbd2c"/>
    </linearGradient>
  </defs>
  <g id="Group_41697" data-name="Group 41697" transform="translate(-853.506 -1458.234)">
    <rect id="Rectangle_18388" data-name="Rectangle 18388" width="40" height="40.001" rx="13" transform="translate(853.506 1458.234)" fill="url(#linear-gradient)"/>
    <path id="Path_82334" data-name="Path 82334" d="M888.646,1476.87a1,1,0,0,0-1.307-.551h0c-.033.014-.062.029-.1.046a.916.916,0,0,0-.238.191c-2.681,3.049-6.819,7.764-9.011,10.266l-.024.026a1.5,1.5,0,0,1-2.106.09l-5.4-4.827a1.663,1.663,0,0,1-.1-2.35h0l.006-.008a1.665,1.665,0,0,1,2.351-.092l2.879,2.549.031.029a1.494,1.494,0,0,0,2.1-.14s7.485-8.557,7.5-8.571a1.224,1.224,0,0,0,.233-.467,1.039,1.039,0,0,0-.187-.876,1.355,1.355,0,0,0-.207-.223,13.075,13.075,0,1,0,3.58,4.91Z" transform="translate(-3.333 -3.534)" fill="#fff"/>
  </g>
</svg>
