<svg xmlns="http://www.w3.org/2000/svg" xmlns:xlink="http://www.w3.org/1999/xlink" width="40.002" height="39.998" viewBox="0 0 40.002 39.998">
  <defs>
    <clipPath id="clip-path">
      <path id="Path_82343" data-name="Path 82343" d="M596.18,1580.83h-1.432c-.4,0-.806.008-1.207.019a17.454,17.454,0,0,0-2.629.231,8.827,8.827,0,0,0-2.5.823,8.4,8.4,0,0,0-3.673,3.672,8.846,8.846,0,0,0-.823,2.5,17.513,17.513,0,0,0-.23,2.626q-.017.6-.019,1.207v17.841q0,.6.019,1.208a17.51,17.51,0,0,0,.23,2.626,8.858,8.858,0,0,0,.823,2.5,8.416,8.416,0,0,0,3.673,3.673,8.856,8.856,0,0,0,2.5.822,17.488,17.488,0,0,0,2.629.231c.4.011.8.016,1.207.019h17.841c.4,0,.8-.008,1.207-.019a17.49,17.49,0,0,0,2.628-.231,8.856,8.856,0,0,0,2.5-.822,8.42,8.42,0,0,0,3.672-3.673,8.84,8.84,0,0,0,.823-2.5,17.326,17.326,0,0,0,.231-2.626q.015-.6.019-1.208v-17.841c0-.4-.009-.8-.019-1.207a17.334,17.334,0,0,0-.231-2.626,8.829,8.829,0,0,0-.823-2.5,8.4,8.4,0,0,0-3.672-3.672,8.831,8.831,0,0,0-2.5-.823,17.522,17.522,0,0,0-2.628-.231c-.4-.011-.8-.015-1.209-.019H596.18Z" transform="translate(-583.668 -1580.829)" fill="none"/>
    </clipPath>
    <linearGradient id="linear-gradient" x1="-39.527" y1="60.131" x2="-39.515" y2="60.131" gradientUnits="objectBoundingBox">
      <stop offset="0" stop-color="#8f54f8"/>
      <stop offset="1" stop-color="#3f4cfd"/>
    </linearGradient>
  </defs>
  <g id="Group_41699" data-name="Group 41699" transform="translate(-1355.999 -1774.001)">
    <g id="Group_41699-2" data-name="Group 41699" transform="translate(1356 1774)">
      <g id="Group_41698" data-name="Group 41698">
        <g id="Group_41697" data-name="Group 41697" clip-path="url(#clip-path)">
          <rect id="Rectangle_18395" data-name="Rectangle 18395" width="56.148" height="56.148" transform="matrix(0.788, -0.616, 0.616, 0.788, -19.408, 15.172)" fill="url(#linear-gradient)"/>
        </g>
      </g>
      <path id="Path_82344" data-name="Path 82344" d="M616.193,1603.56h-.025a8.789,8.789,0,0,0,1.582-9.255,8.494,8.494,0,0,0-7.931-5.291h-.246a8.86,8.86,0,0,0-8.859,8.858v5.688h.025v5.686a8.859,8.859,0,0,0,8.859,8.859h.247a8.5,8.5,0,0,0,7.931-5.29,8.789,8.789,0,0,0-1.583-9.255m-10.025-4.769a3.834,3.834,0,0,1,1.031-2.676,3.135,3.135,0,0,1,5.5,1.549,2.908,2.908,0,0,1-2.638,3.156q-.13.012-.26.012h-3.6c-.017,0-.031-.011-.031-.109Zm6.17,12.147a2.6,2.6,0,0,1-2.265,1.258h-.855a3.05,3.05,0,0,1-3.05-3.051v-2.833a.027.027,0,0,1,.026-.027h3.667a3,3,0,0,1,2.477,4.652" transform="translate(-589.35 -1583.556)" fill="#fff"/>
    </g>
  </g>
</svg>
