<svg id="Group_4" data-name="Group 4" xmlns="http://www.w3.org/2000/svg" xmlns:xlink="http://www.w3.org/1999/xlink" width="40.001" height="39.999" viewBox="0 0 40.001 39.999">
  <defs>
    <linearGradient id="linear-gradient" x1="0.155" x2="0.867" y2="1" gradientUnits="objectBoundingBox">
      <stop offset="0" stop-color="#fbde31"/>
      <stop offset="1" stop-color="#f8a909"/>
    </linearGradient>
    <filter id="Union_33" x="6.8" y="5.97" width="26.824" height="29.6" filterUnits="userSpaceOnUse">
      <feOffset dy="1" input="SourceAlpha"/>
      <feGaussianBlur stdDeviation="0.5" result="blur"/>
      <feFlood flood-opacity="0.161"/>
      <feComposite operator="in" in2="blur"/>
      <feComposite in="SourceGraphic"/>
    </filter>
  </defs>
  <path id="App_Icon_Mask" data-name="App Icon Mask" d="M40,12.513V11.079c0-.4-.007-.8-.018-1.206a17.542,17.542,0,0,0-.231-2.627,8.848,8.848,0,0,0-.824-2.5,8.4,8.4,0,0,0-3.675-3.674,8.857,8.857,0,0,0-2.5-.823A17.559,17.559,0,0,0,30.127.021C29.724.01,29.323,0,28.92,0H11.08c-.4,0-.8.007-1.207.018A17.551,17.551,0,0,0,7.245.249a8.857,8.857,0,0,0-2.5.822,8.4,8.4,0,0,0-3.67,3.676,8.848,8.848,0,0,0-.824,2.5,17.542,17.542,0,0,0-.23,2.626Q0,10.476,0,11.079V28.92q0,.6.018,1.206a17.542,17.542,0,0,0,.231,2.627,8.853,8.853,0,0,0,.824,2.5,8.412,8.412,0,0,0,3.676,3.674,8.857,8.857,0,0,0,2.5.823,17.551,17.551,0,0,0,2.628.231c.4.011.8.015,1.207.018H28.92c.4,0,.8-.007,1.207-.018a17.559,17.559,0,0,0,2.628-.231,8.857,8.857,0,0,0,2.5-.823,8.412,8.412,0,0,0,3.673-3.675,8.853,8.853,0,0,0,.824-2.5,17.543,17.543,0,0,0,.231-2.627c.011-.4.015-.8.018-1.206V12.513Z" fill="url(#linear-gradient)"/>
  <g transform="matrix(1, 0, 0, 1, 0, 0)" filter="url(#Union_33)">
    <path id="Union_33-2" data-name="Union 33" d="M5.833,25.6A5.833,5.833,0,0,1,0,19.766V5.833A5.833,5.833,0,0,1,5.833,0h7.029a3.2,3.2,0,0,1,2.263.937L21.81,7.621a3.464,3.464,0,0,1,1.014,2.45v9.695A5.833,5.833,0,0,1,16.989,25.6ZM3.084,5.833V19.766a2.749,2.749,0,0,0,2.749,2.749H16.99a2.749,2.749,0,0,0,2.749-2.749V11.409H14.1a2.682,2.682,0,0,1-2.682-2.682V3.084H5.833A2.749,2.749,0,0,0,3.084,5.833ZM6.8,19.827a1.2,1.2,0,0,1,0-2.4h9.6a1.2,1.2,0,1,1,0,2.4Zm0-4a1.2,1.2,0,0,1,0-2.4h9.6a1.2,1.2,0,1,1,0,2.4Z" transform="translate(8.8 6.97)" fill="#fff" stroke="rgba(0,0,0,0)" stroke-miterlimit="10" stroke-width="1"/>
  </g>
</svg>
