<svg id="ic_hrm_100px" xmlns="http://www.w3.org/2000/svg" xmlns:xlink="http://www.w3.org/1999/xlink" width="40" height="40" viewBox="0 0 40 40">
  <defs>
    <linearGradient id="linear-gradient" x1="0.5" x2="0.5" y2="1" gradientUnits="objectBoundingBox">
      <stop offset="0" stop-color="#ffb70e"/>
      <stop offset="1" stop-color="#ee9401"/>
    </linearGradient>
  </defs>
  <path id="App_Icon_Mask_1_" d="M40,12.5V9.875a18.648,18.648,0,0,0-.25-2.625,5.991,5.991,0,0,0-.875-2.5A7.84,7.84,0,0,0,35.25,1.125,14.705,14.705,0,0,0,32.75.25,18.649,18.649,0,0,0,30.125,0H9.875A18.649,18.649,0,0,0,7.25.25a5.991,5.991,0,0,0-2.5.875A7.312,7.312,0,0,0,1.125,4.75,14.705,14.705,0,0,0,.25,7.25,18.649,18.649,0,0,0,0,9.875v20.25A18.649,18.649,0,0,0,.25,32.75a5.991,5.991,0,0,0,.875,2.5A7.84,7.84,0,0,0,4.75,38.876a14.706,14.706,0,0,0,2.5.875A18.65,18.65,0,0,0,9.875,40h20.25a18.648,18.648,0,0,0,2.625-.25,5.991,5.991,0,0,0,2.5-.875,7.84,7.84,0,0,0,3.625-3.625,14.707,14.707,0,0,0,.875-2.5A18.648,18.648,0,0,0,40,30.125Z" fill="url(#linear-gradient)"/>
  <g id="Group_80" data-name="Group 80" transform="translate(6.784 6.44)">
    <path id="Path_2" data-name="Path 2" d="M24.386,13.489A8.836,8.836,0,0,1,18,25.316v3.43a12.223,12.223,0,0,0,9.343-16.9Z" transform="translate(-3.03 -2.684)" fill="#fff"/>
    <path id="Path_3" data-name="Path 3" d="M7.668,9.087a8.836,8.836,0,0,1,12.494-.222q.191.185.372.381l2.982-1.69A12.224,12.224,0,0,0,4.676,7.4Z" transform="translate(-0.96 -1.315)" fill="#fff"/>
    <path id="Path_4" data-name="Path 4" d="M12.02,25.312A8.845,8.845,0,0,1,5.26,13.24L2.323,11.55a12.214,12.214,0,0,0,9.7,17.174Z" transform="translate(-0.431 -2.638)" fill="#fff"/>
    <path id="Path_5" data-name="Path 5" d="M17.223,6.728V1H13.844V6.728a2.534,2.534,0,1,0,3.578.2,2.467,2.467,0,0,0-.2-.2Z" transform="translate(-2.254 -1)" fill="#fff"/>
    <path id="Path_6" data-name="Path 6" d="M5.239,21,.28,23.866l1.688,2.922,4.96-2.864A2.538,2.538,0,1,0,5.238,21Z" transform="translate(-0.28 -3.785)" fill="#fff"/>
    <path id="Path_7" data-name="Path 7" d="M23.237,23.932,28.2,26.8l1.688-2.922-4.96-2.864a2.534,2.534,0,1,0-1.966,3A2.61,2.61,0,0,0,23.237,23.932Z" transform="translate(-3.325 -3.793)" fill="#fff"/>
  </g>
</svg>
