<svg xmlns="http://www.w3.org/2000/svg" xmlns:xlink="http://www.w3.org/1999/xlink" width="40" height="40" viewBox="0 0 40 40">
  <defs>
    <linearGradient id="linear-gradient" x1="0.889" y1="0.5" x2="0.09" y2="0.5" gradientUnits="objectBoundingBox">
      <stop offset="0" stop-color="#ff416a"/>
      <stop offset="1" stop-color="#ff4b2b"/>
    </linearGradient>
    <clipPath id="clip-path">
      <rect id="Rectangle_1" data-name="Rectangle 1" width="2.4" height="2.4" transform="translate(22.8 22.8)" fill="none"/>
    </clipPath>
  </defs>
  <g id="ic-sale-marketing-2" transform="translate(-4 -4)">
    <path id="Path_1" data-name="Path 1" d="M34,4H14A10,10,0,0,0,4,14V34A10,10,0,0,0,14,44H34A10,10,0,0,0,44,34V14A10,10,0,0,0,34,4ZM15.6,31l5.51-4.69-6.4,3.9L9.08,28.28,24,24,16.86,37ZM24,37.9a13.65,13.65,0,0,1-4.63-.8L22,32.23A8.46,8.46,0,1,0,15.54,24v.1L10.2,25.63A12.52,12.52,0,0,1,10.1,24,13.9,13.9,0,1,1,24,37.9Z" fill="url(#linear-gradient)"/>
    <g id="Group_2" data-name="Group 2" opacity="0.85">
      <g id="Group_1" data-name="Group 1" clip-path="url(#clip-path)">
        <path id="Path_2" data-name="Path 2" d="M25.2,24A1.2,1.2,0,1,1,24,22.8,1.2,1.2,0,0,1,25.2,24" fill="#fff"/>
      </g>
    </g>
    <path id="Path_3" data-name="Path 3" d="M28.34,20.74a2.56,2.56,0,0,0-.2-.26,5.43,5.43,0,0,0-9.52,2.73l.86-.24A4.64,4.64,0,0,1,24,19.36a4.59,4.59,0,0,1,3.28,1.37,4.37,4.37,0,0,1,.63.79A4.59,4.59,0,0,1,28.64,24,4.65,4.65,0,0,1,24,28.64l-.43.78h.42A5.45,5.45,0,0,0,29.44,24a5.38,5.38,0,0,0-1.1-3.26" fill="#fff"/>
  </g>
</svg>
