<svg xmlns="http://www.w3.org/2000/svg" xmlns:xlink="http://www.w3.org/1999/xlink" width="40" height="40" viewBox="0 0 40 40">
  <defs>
    <linearGradient id="linear-gradient" x1="0.5" x2="0.5" y2="1" gradientUnits="objectBoundingBox">
      <stop offset="0" stop-color="#2093f0"/>
      <stop offset="1" stop-color="#166ac5"/>
    </linearGradient>
  </defs>
  <g id="Group_23" data-name="Group 23" transform="translate(-960.118 -204.655)">
    <g id="Group_22" data-name="Group 22" transform="translate(960.118 204.655)">
      <circle id="Ellipse_5" data-name="Ellipse 5" cx="20" cy="20" r="20" fill="url(#linear-gradient)"/>
    </g>
    <g id="Group_9" data-name="Group 9" transform="translate(968.757 209.42)">
      <path id="Path_16" data-name="Path 16" d="M981.305,229.758c-.143-.231-.31-.451-.467-.671q-2.286-3.249-4.583-6.487c-.041-.057-.039-.079.021-.116a5.194,5.194,0,0,0,1.724-1.7,5.108,5.108,0,0,0,.74-1.97c.019-.127.037-.259.049-.389,0-.063.03-.074.086-.074q1.774,0,3.55-.019l5.572-.03c.078,0,.093.019.093.1a13.446,13.446,0,0,1-.286,2.314,13.715,13.715,0,0,1-5.263,8.234c-.363.269-.739.511-1.12.746l-.1.067a.037.037,0,0,0-.014-.007Z" transform="translate(-961.853 -203.569)" fill="#fff"/>
      <path id="Path_17" data-name="Path 17" d="M979.017,220.506c-.037.011-.042-.03-.052-.067a5.293,5.293,0,0,0-.428-1.1,5.379,5.379,0,0,0-1.179-1.541,5.461,5.461,0,0,0-1.784-1.087c-.067-.021-.083-.049-.057-.119q1.534-3.971,3.066-7.947c.026-.064.049-.076.111-.053a14.23,14.23,0,0,1,9.44,10.694c.026.143.026.143-.111.153l-2.89.344-2.086.246c-.65.079-1.3.157-1.946.231l-1.817.213Z" transform="translate(-962.162 -207.739)" fill="#fff"/>
      <path id="Path_18" data-name="Path 18" d="M976.574,208l.429-.01c.407-.009.81,0,1.217.01.571.027,1.143.076,1.714.157.063.007.07.023.056.083q-1.024,4.11-2.05,8.216c-.019.074-.044.1-.123.1a8.054,8.054,0,0,0-1.258.056,5.826,5.826,0,0,0-2.662,1.071,5.728,5.728,0,0,0-.714.606c-.034.033-.056.037-.1,0l-6.92-5.617c.127-.131.253-.261.384-.389a15.41,15.41,0,0,1,8.084-4.073A16.135,16.135,0,0,1,976.574,208Z" transform="translate(-966.165 -207.991)" fill="#fff"/>
      <path id="Path_19" data-name="Path 19" d="M978.562,219.122a3.684,3.684,0,1,1-3.684-3.684,3.684,3.684,0,0,1,3.684,3.684Z" transform="translate(-964.01 -204.799)" fill="#fff"/>
    </g>
  </g>
</svg>
